<svg height='300px' width='300px' fill="#ffffff" xmlns="http://www.w3.org/2000/svg"
     xmlns:xlink="http://www.w3.org/1999/xlink" version="1.1" x="0px" y="0px" viewBox="0 0 70.835 100"
     enable-background="new 0 0 70.835 100" xml:space="preserve"><path fill="#ffffff" d="M46.695,0H0v100h70.835V24.136L46.695,0z M47.916,7.111l15.807,15.804H47.916V7.111z M66.669,95.833H4.167  V4.167h39.582v22.916h22.92V95.833z"></path>
    <polygon fill="#ffffff"
             points="16.057,51.472 20.833,46.695 25.611,51.472 28.557,48.526 23.78,43.75 28.557,38.972 25.611,36.026   20.833,40.803 16.057,36.026 13.111,38.972 17.888,43.75 13.111,48.526 "></polygon>
    <polygon fill="#ffffff"
             points="47.055,43.75 42.278,48.526 45.224,51.472 50.001,46.695 54.777,51.472 57.724,48.526 52.946,43.75   57.724,38.972 54.777,36.026 50.001,40.803 45.224,36.026 42.278,38.972 "></polygon>
    <path fill="#ffffff"
          d="M14.583,72.917h4.167v8.333c0,4.598,3.737,8.333,8.333,8.333c4.596,0,8.333-3.735,8.333-8.333v-8.333h20.834  V68.75H14.583V72.917z M31.25,81.25c0,2.299-1.87,4.167-4.167,4.167c-2.297,0-4.167-1.868-4.167-4.167v-8.333H25v8.333h4.167v-8.333  h2.083V81.25z"></path></svg>
