<svg width="92" height="20" viewBox="0 0 92 20" fill="none" xmlns="http://www.w3.org/2000/svg">
<path d="M6.084 11.05L4.392 12.814V16H1.494V3.4H4.392V9.286L9.972 3.4H13.212L7.992 9.016L13.518 16H10.116L6.084 11.05ZM18.0942 16.144C17.0022 16.144 16.1502 15.856 15.5382 15.28C14.9262 14.692 14.6202 13.864 14.6202 12.796V2.644H17.4282V12.634C17.4282 13.042 17.5302 13.36 17.7342 13.588C17.9502 13.804 18.2502 13.912 18.6342 13.912C18.7782 13.912 18.9222 13.894 19.0662 13.858C19.2222 13.822 19.3422 13.78 19.4262 13.732L19.5522 15.91C19.0842 16.066 18.5982 16.144 18.0942 16.144ZM30.583 6.316V16H27.901V14.884C27.205 15.724 26.197 16.144 24.877 16.144C23.965 16.144 23.137 15.94 22.393 15.532C21.661 15.124 21.085 14.542 20.665 13.786C20.245 13.03 20.035 12.154 20.035 11.158C20.035 10.162 20.245 9.286 20.665 8.53C21.085 7.774 21.661 7.192 22.393 6.784C23.137 6.376 23.965 6.172 24.877 6.172C26.113 6.172 27.079 6.562 27.775 7.342V6.316H30.583ZM25.363 13.84C26.071 13.84 26.659 13.6 27.127 13.12C27.595 12.628 27.829 11.974 27.829 11.158C27.829 10.342 27.595 9.694 27.127 9.214C26.659 8.722 26.071 8.476 25.363 8.476C24.643 8.476 24.049 8.722 23.581 9.214C23.113 9.694 22.879 10.342 22.879 11.158C22.879 11.974 23.113 12.628 23.581 13.12C24.049 13.6 24.643 13.84 25.363 13.84ZM36.4407 16.144C35.6367 16.144 34.8507 16.048 34.0827 15.856C33.3147 15.652 32.7027 15.4 32.2467 15.1L33.1827 13.084C33.6147 13.36 34.1367 13.588 34.7487 13.768C35.3607 13.936 35.9607 14.02 36.5487 14.02C37.7367 14.02 38.3307 13.726 38.3307 13.138C38.3307 12.862 38.1687 12.664 37.8447 12.544C37.5207 12.424 37.0227 12.322 36.3507 12.238C35.5587 12.118 34.9047 11.98 34.3887 11.824C33.8727 11.668 33.4227 11.392 33.0387 10.996C32.6667 10.6 32.4807 10.036 32.4807 9.304C32.4807 8.692 32.6547 8.152 33.0027 7.684C33.3627 7.204 33.8787 6.832 34.5507 6.568C35.2347 6.304 36.0387 6.172 36.9627 6.172C37.6467 6.172 38.3247 6.25 38.9967 6.406C39.6807 6.55 40.2447 6.754 40.6887 7.018L39.7527 9.016C38.9007 8.536 37.9707 8.296 36.9627 8.296C36.3627 8.296 35.9127 8.38 35.6127 8.548C35.3127 8.716 35.1627 8.932 35.1627 9.196C35.1627 9.496 35.3247 9.706 35.6487 9.826C35.9727 9.946 36.4887 10.06 37.1967 10.168C37.9887 10.3 38.6367 10.444 39.1407 10.6C39.6447 10.744 40.0827 11.014 40.4547 11.41C40.8267 11.806 41.0127 12.358 41.0127 13.066C41.0127 13.666 40.8327 14.2 40.4727 14.668C40.1127 15.136 39.5847 15.502 38.8887 15.766C38.2047 16.018 37.3887 16.144 36.4407 16.144ZM46.0032 16.144C45.1992 16.144 44.4132 16.048 43.6452 15.856C42.8772 15.652 42.2652 15.4 41.8092 15.1L42.7452 13.084C43.1772 13.36 43.6992 13.588 44.3112 13.768C44.9232 13.936 45.5232 14.02 46.1112 14.02C47.2992 14.02 47.8932 13.726 47.8932 13.138C47.8932 12.862 47.7312 12.664 47.4072 12.544C47.0832 12.424 46.5852 12.322 45.9132 12.238C45.1212 12.118 44.4672 11.98 43.9512 11.824C43.4352 11.668 42.9852 11.392 42.6012 10.996C42.2292 10.6 42.0432 10.036 42.0432 9.304C42.0432 8.692 42.2172 8.152 42.5652 7.684C42.9252 7.204 43.4412 6.832 44.1132 6.568C44.7972 6.304 45.6012 6.172 46.5252 6.172C47.2092 6.172 47.8872 6.25 48.5592 6.406C49.2432 6.55 49.8072 6.754 50.2512 7.018L49.3152 9.016C48.4632 8.536 47.5332 8.296 46.5252 8.296C45.9252 8.296 45.4752 8.38 45.1752 8.548C44.8752 8.716 44.7252 8.932 44.7252 9.196C44.7252 9.496 44.8872 9.706 45.2112 9.826C45.5352 9.946 46.0512 10.06 46.7592 10.168C47.5512 10.3 48.1992 10.444 48.7032 10.6C49.2072 10.744 49.6452 11.014 50.0172 11.41C50.3892 11.806 50.5752 12.358 50.5752 13.066C50.5752 13.666 50.3952 14.2 50.0352 14.668C49.6752 15.136 49.1472 15.502 48.4512 15.766C47.7672 16.018 46.9512 16.144 46.0032 16.144ZM52.3077 6.316H55.1157V16H52.3077V6.316ZM53.7117 4.966C53.1957 4.966 52.7757 4.816 52.4517 4.516C52.1277 4.216 51.9657 3.844 51.9657 3.4C51.9657 2.956 52.1277 2.584 52.4517 2.284C52.7757 1.984 53.1957 1.834 53.7117 1.834C54.2277 1.834 54.6477 1.978 54.9717 2.266C55.2957 2.554 55.4577 2.914 55.4577 3.346C55.4577 3.814 55.2957 4.204 54.9717 4.516C54.6477 4.816 54.2277 4.966 53.7117 4.966ZM60.4578 6.532H62.9418V8.692H60.5298V16H57.7218V6.1C57.7218 4.996 58.0458 4.12 58.6938 3.472C59.3538 2.824 60.2778 2.5 61.4658 2.5C61.8858 2.5 62.2818 2.548 62.6538 2.644C63.0378 2.728 63.3558 2.854 63.6078 3.022L62.8698 5.056C62.5458 4.828 62.1678 4.714 61.7358 4.714C60.8838 4.714 60.4578 5.182 60.4578 6.118V6.532Z" fill="#fff"/>
<path d="M70.4061 2.64344C70.7847 2.23327 71.3175 2 71.8757 2H90C91.1046 2 92 2.89543 92 4V14C92 15.1046 91.1046 16 90 16H71.9612C71.3537 16 70.7791 15.7238 70.3995 15.2494L66.0741 9.84258C65.4564 9.07056 65.4956 7.9631 66.1662 7.23663L70.4061 2.64344Z" fill="#38B2AC"/>
<path d="M78.776 4.456C79.552 4.456 80.228 4.608 80.804 4.912C81.38 5.216 81.828 5.664 82.148 6.256C82.468 6.848 82.628 7.564 82.628 8.404V13H80.684V10.984H76.844V13H74.924V8.404C74.924 7.564 75.084 6.848 75.404 6.256C75.724 5.664 76.172 5.216 76.748 4.912C77.324 4.608 78 4.456 78.776 4.456ZM80.684 9.424V8.224C80.684 7.528 80.512 7.004 80.168 6.652C79.824 6.292 79.356 6.112 78.764 6.112C78.164 6.112 77.692 6.292 77.348 6.652C77.012 7.004 76.844 7.528 76.844 8.224V9.424H80.684ZM87.4268 6.16V11.44H88.8788V13H84.0188V11.44H85.4828V6.16H84.0188V4.6H88.8788V6.16H87.4268Z" fill="white"/>
<circle cx="70.5" cy="8.5" r="1.5" fill="white"/>
</svg>
